<?xml version="1.0" encoding="utf-8"?>

<!DOCTYPE svg PUBLIC "-//W3C//DTD SVG 1.1//EN" "http://www.w3.org/Graphics/SVG/1.1/DTD/svg11.dtd">
<!-- Uploaded to: SVG Repo, www.svgrepo.com, Generator: SVG Repo Mixer Tools -->
<svg height="800px" width="800px" version="1.1" id="_x32_" xmlns="http://www.w3.org/2000/svg" xmlns:xlink="http://www.w3.org/1999/xlink" 
	 viewBox="0 0 512 512"  xml:space="preserve">
<style type="text/css">
	.st0{fill:#000000;}
</style>
<g>
	<path class="st0" d="M381.19,208.004c0-10.983-4.842-21.405-13.244-28.476l-15.488-13.044c-6.638-5.579-11.111-13.3-12.65-21.822
		v-8.225h-167.6v8.225c-1.555,8.522-6.028,16.243-12.65,21.822l-15.504,13.044c-8.386,7.071-13.244,17.493-13.244,28.476v43.307
		c0,10.469,4.409,20.451,12.137,27.498l-1.699-1.539c7.728,7.047,12.137,17.028,12.137,27.498v43.803
		c0,7.528-2.277,14.879-6.542,21.085l-9.476,13.789c-4.265,6.204-6.558,13.556-6.558,21.084v59.549
		c0,13.163,6.958,25.349,18.294,32.051l18.102,10.695c5.724,3.39,12.265,5.178,18.935,5.178H256h69.858
		c6.67,0,13.212-1.788,18.952-5.178l18.086-10.695c11.335-6.702,18.294-18.888,18.294-32.051v-59.549
		c0-7.528-2.277-14.879-6.542-21.084l-9.476-13.789c-4.265-6.206-6.558-13.557-6.558-21.085v-43.803
		c0-10.47,4.409-20.451,12.137-27.498l-1.699,1.539c7.728-7.047,12.137-17.028,12.137-27.498V208.004z M356.563,251.31
		c0,3.535-1.492,6.926-4.153,9.347l0.032,0.032c-11.752,11.585-18.454,27.514-18.454,44.077v43.803
		c0,12.563,3.768,24.676,10.886,35.034l9.476,13.789c1.443,2.116,2.213,4.577,2.213,7.134v59.549c0,4.434-2.373,8.594-6.189,10.847
		l-18.102,10.702c-1.94,1.138-4.153,1.748-6.414,1.748H256h-69.859c-2.261,0-4.473-0.609-6.413-1.756l-18.087-10.686
		c-3.832-2.261-6.204-6.421-6.204-10.855v-59.549c0-2.557,0.769-5.018,2.229-7.134l9.46-13.789
		c7.119-10.358,10.887-22.471,10.887-35.034v-43.803c0-16.579-6.718-32.532-18.502-44.117l0.032-0.032
		c-2.598-2.381-4.105-5.772-4.105-9.307v-43.307c0-3.72,1.635-7.24,4.489-9.637l15.489-13.035
		c7.776-6.558,13.789-14.918,17.556-24.266h126.073c3.752,9.34,9.764,17.709,17.541,24.259l15.504,13.043
		c2.839,2.397,4.474,5.916,4.474,9.637V251.31z"/>
	<path class="st0" d="M343.223,79.318c0-15.416-12.506-27.923-27.914-27.923h-42.489v-14.96h15.601c2.357,0,3.335-1.299,3.335-3.671
		C291.755,14.679,275.737,0,256,0c-19.738,0-35.755,14.679-35.755,32.764c0,2.372,0.994,3.671,3.335,3.671h15.6v14.96h-42.473
		c-15.424,0-27.93,12.507-27.93,27.923v39.803h174.445V79.318z"/>
</g>
</svg>